<svg width="272" height="145" viewBox="0 0 272 145" fill="none" xmlns="http://www.w3.org/2000/svg">
<path d="M113.853 57.2545C133.277 58.4631 122.093 19.3475 154.582 16.6056C182.689 14.2339 180.581 40.1599 215.379 38.6971C224.186 38.327 254.454 30.0992 266.126 39.4586C273.734 45.5589 273.282 55.0302 268.58 62.5097C263.877 69.9892 256.155 76.347 251.665 83.8933C247.044 91.657 244.378 102.61 246.585 111.014C248.629 118.796 252.401 126.273 246.084 133.878C241.215 139.738 231.338 142.683 221.844 142.965C205.366 143.456 185.587 138.638 172.035 132.021C161.599 126.926 156.438 119.714 143.08 117.133C131.171 114.831 110.894 124.184 100.39 128.523C58.4983 145.827 9.93971 125.764 14.2702 95.8291C23.1251 34.6032 72.1614 54.6604 113.853 57.2545Z" fill="#9FBEC2"/>
<path d="M239.716 116.654C240.334 116.044 240.939 115.428 241.532 114.808" stroke="#373131" stroke-width="0.75" stroke-miterlimit="10" stroke-linecap="round"/>
<path d="M244.919 111.047C252.297 102.348 257.327 92.7821 259.665 82.933C260.981 77.3851 261.441 71.6571 259.462 66.1958C257.482 60.7344 252.835 55.5335 245.652 52.5202C237.107 48.9358 226.115 48.8551 216.259 50.3895C206.403 51.9238 197.227 54.9081 187.692 57.1563C178.156 59.4044 167.786 60.9233 157.931 59.3879C146.117 57.5473 136.9 51.6744 126.659 47.3758C118.385 43.9025 88.3207 34.6246 64.1523 44.2657C36.3052 55.3743 12.1196 95.4983 78.5571 111.246" stroke="#373131" stroke-width="0.75" stroke-miterlimit="10" stroke-linecap="round" stroke-dasharray="11.93 11.93"/>
<path d="M81.6934 111.957C82.7337 112.182 83.7952 112.401 84.8773 112.615" stroke="#373131" stroke-width="0.75" stroke-miterlimit="10" stroke-linecap="round"/>
<path d="M253.361 7.69124C253.361 7.69124 249.335 10.5729 249.338 15.5867C249.338 15.5867 247.294 9.52086 243.526 8.88996C243.526 8.88996 247.697 6.70014 247.035 1C247.035 1 249.47 6.08794 253.361 7.69124Z" stroke="#373131" stroke-width="0.75" stroke-miterlimit="10" stroke-linecap="round" stroke-linejoin="round"/>
<path d="M264.993 96.3235C264.993 96.3235 262.693 97.5636 262.16 100.046C262.16 100.046 261.794 96.9481 259.996 96.4614C259.996 96.4614 262.294 95.5704 262.573 92.7178C262.573 92.7178 263.237 95.3496 264.993 96.3235Z" fill="#FDAD5D"/>
<path d="M46.6007 12.9801C46.6007 12.9801 43.5847 14.6061 42.8863 17.8615C42.8863 17.8615 42.4064 13.7991 40.0488 13.1609C40.0488 13.1609 43.0626 11.9926 43.4284 8.25195C43.4284 8.25195 44.2987 11.7025 46.6007 12.9801Z" fill="#FDAD5D"/>
<path d="M246.877 75.4238C246.877 75.4238 244.821 76.5319 244.345 78.7496C244.345 78.7496 244.019 75.9817 242.412 75.5467C242.412 75.5467 244.466 74.7507 244.715 72.2021C244.715 72.2021 245.308 74.5537 246.877 75.4238Z" stroke="#373131" stroke-width="0.75" stroke-miterlimit="10" stroke-linecap="round" stroke-linejoin="round"/>
<path d="M20.8375 133.815C20.8375 133.815 18.7824 134.923 18.3064 137.141C18.3064 137.141 17.9795 134.373 16.373 133.938C16.373 133.938 18.4265 133.142 18.6756 130.594C18.6756 130.594 19.2689 132.945 20.8375 133.815Z" fill="#FDAD5D"/>
<path d="M38.7663 109.24C38.7663 109.24 36.1279 110.663 35.5173 113.51C35.5173 113.51 35.0975 109.956 33.0352 109.398C33.0352 109.398 35.6714 108.376 35.9916 105.104C35.9916 105.104 36.7523 108.123 38.7663 109.24Z" stroke="#373131" stroke-width="0.75" stroke-miterlimit="10" stroke-linecap="round" stroke-linejoin="round"/>
<path d="M28.98 68.0066C28.98 68.0066 23.7643 70.5057 22.6995 75.4755C22.6995 75.4755 21.6558 69.2813 17.4844 68.3217C17.4844 68.3217 22.7184 66.5211 23.1755 60.8125C23.1755 60.8125 24.8736 66.0721 28.98 68.0066Z" stroke="#373131" stroke-width="0.75" stroke-miterlimit="10" stroke-linecap="round" stroke-linejoin="round"/>
<path d="M269.737 21.7731C269.737 21.7731 266.451 23.3474 265.78 26.4784C265.78 26.4784 265.123 22.5764 262.494 21.9719C262.494 21.9719 265.791 20.8377 266.079 17.2412C266.079 17.2412 267.15 20.5546 269.737 21.7731Z" fill="#FDAD5D"/>
<path d="M178.919 77.3982L188.128 77.4526C188.128 77.4526 207.076 79.6424 212.679 85.2329C218.702 91.2428 219.029 141.199 191.908 144.61C164.786 148.02 149.586 128.097 146.829 122.924C144.073 117.751 146.304 115.18 146.304 115.18L142.834 111.108C133.92 113.864 126.199 116.25 126.199 116.25L121.652 119.284C121.652 119.284 121.161 124.159 118.569 125.851C116.121 127.449 110.465 130.357 101.435 127.978C94.8407 126.24 90.6953 111.054 92.4329 107.285C94.1704 103.517 99.0847 99.4733 109.461 93.8896C120.316 88.0477 138.398 83.009 149.139 79.9802C159.881 76.9514 174.043 77.3696 178.919 77.3982Z" fill="#488094"/>
<path d="M150.549 91.854L170.854 96.7318" stroke="white" stroke-width="0.75" stroke-miterlimit="10" stroke-linecap="round"/>
<path d="M180.587 99.5146L198.325 101.537" stroke="white" stroke-width="0.75" stroke-miterlimit="10" stroke-linecap="round"/>
<path d="M146.304 115.18C146.304 115.18 156.173 112.112 158.978 102.195" stroke="white" stroke-width="0.75" stroke-miterlimit="10" stroke-linecap="round"/>
<path d="M189.891 79.6421C189.891 79.6421 200.7 81.4303 207.452 84.7186" stroke="white" stroke-width="0.75" stroke-miterlimit="10" stroke-linecap="round"/>
<path d="M187.975 77.3993C187.975 77.3993 188.485 79.3711 187.703 80.8087C186.081 83.7916 183.332 83.7875 183.332 83.7875L178.114 113.679C178.114 113.679 172.065 112.145 165.865 107.608L177.066 83.1885C177.066 83.1885 176.498 79.6424 178.766 77.3989L187.975 77.3993Z" fill="white"/>
<path d="M155.613 99.0069C155.613 99.0069 171.863 116.078 185.648 114.359C199.432 112.64 198.39 105.05 198.274 96.5484C198.158 88.0473 206.236 82.5499 212.68 85.2324" stroke="#373131" stroke-width="0.75" stroke-miterlimit="10" stroke-linecap="round"/>
<path d="M142.714 110.966C140.744 109.231 153.917 96.9811 155.613 99.0072C157.308 101.033 144.412 112.463 142.714 110.966Z" fill="#373131"/>
<path d="M125.992 116.25C128.372 115.425 119.86 98.6394 117.645 99.8479C115.43 101.056 123.939 116.962 125.992 116.25Z" fill="#373131"/>
<path d="M182.981 85.8014C182.981 85.8014 190.89 86.2985 189.891 77.688" stroke="#373131" stroke-width="0.75" stroke-miterlimit="10" stroke-linecap="round"/>
<path d="M185.012 85.6064L180.545 114.217" stroke="#373131" stroke-width="0.75" stroke-miterlimit="10" stroke-linecap="round"/>
<path d="M185.646 114.359C185.646 114.359 192.828 115.219 195.261 119.185C197.693 123.152 190.453 119.185 190.453 119.185" stroke="#373131" stroke-width="0.75" stroke-miterlimit="10" stroke-linecap="round"/>
<path d="M176.363 84.7191C176.363 84.7191 173 82.6889 176.021 77.3994" stroke="#373131" stroke-width="0.75" stroke-miterlimit="10" stroke-linecap="round"/>
<path d="M177.895 78.5342C177.895 78.5342 181.971 83.9634 188.139 79.2624" stroke="#373131" stroke-width="0.75" stroke-miterlimit="10" stroke-linecap="round"/>
<path d="M117.646 99.8481C117.646 99.8481 107.111 104.179 99.8135 104.575" stroke="#373131" stroke-width="0.75" stroke-miterlimit="10" stroke-linecap="round"/>
<path d="M121.446 119.284C121.446 119.284 114.954 114.262 113.06 101.537" stroke="white" stroke-width="0.75" stroke-miterlimit="10" stroke-linecap="round"/>
<path d="M98.998 90.3794L115.815 95.6498H160.505L145.796 90.3794H98.998Z" fill="#373131"/>
<path d="M101.119 84.853C101.119 84.853 102.878 86.2994 101.798 90.3798L115.988 94.6372L128.697 95.0415V84.853H101.119Z" fill="white"/>
<path d="M102.053 86.8105L117.639 91.3891" stroke="#373131" stroke-width="0.75" stroke-miterlimit="10" stroke-linecap="round"/>
<path d="M102.076 88.9946L117.64 93.5668" stroke="#373131" stroke-width="0.75" stroke-miterlimit="10" stroke-linecap="round"/>
<path d="M101.119 84.853C101.119 84.853 102.878 86.2994 101.798 90.3798L115.988 94.6372L128.697 95.0415V84.853H101.119Z" stroke="#373131" stroke-width="0.75" stroke-miterlimit="10" stroke-linecap="round"/>
<path d="M115.815 95.6499C115.815 95.6499 116.96 93.7276 115.815 89.7724L98.998 84.502H146.159L161.173 89.7724C161.173 89.7724 162.751 91.3993 161.173 95.6499H115.815Z" fill="#A15743"/>
<path d="M115.814 89.7725H161.173" stroke="white" stroke-width="0.75" stroke-miterlimit="10" stroke-linecap="round"/>
<path d="M106.416 83.6533L123.233 88.9237H167.923L153.215 83.6533H106.416Z" fill="#373131"/>
<path d="M108.538 74.4839C108.538 74.4839 110.297 79.5737 109.217 83.6538L123.407 87.9112L136.116 88.3155V74.4839H108.538Z" fill="white"/>
<path d="M109.542 81.5283L125.29 85.8318" stroke="#373131" stroke-width="0.75" stroke-miterlimit="10" stroke-linecap="round"/>
<path d="M109.352 77.9751L125.29 82.3307" stroke="#373131" stroke-width="0.75" stroke-miterlimit="10" stroke-linecap="round"/>
<path d="M108.538 74.4839C108.538 74.4839 110.297 79.5737 109.217 83.6538L123.407 87.9112L136.116 88.3155V74.4839H108.538Z" stroke="#373131" stroke-width="0.75" stroke-miterlimit="10" stroke-linecap="round"/>
<path d="M123.233 88.9239C123.233 88.9239 124.378 83.3584 123.233 79.4032L106.416 74.1328H153.577L168.591 79.4032C168.591 79.4032 170.168 84.6736 168.591 88.9239H123.233Z" fill="#488094"/>
<path d="M126.969 79.4033C126.969 79.4033 128.457 84.8999 126.969 88.924" stroke="#373131" stroke-width="0.75" stroke-miterlimit="10" stroke-linecap="round"/>
<path d="M165.661 79.4033C165.661 79.4033 167.15 84.8999 165.661 88.924" stroke="#373131" stroke-width="0.75" stroke-miterlimit="10" stroke-linecap="round"/>
<path d="M163.264 87.5148C164.32 85.0858 163.264 81.5283 163.264 81.5283H130.436C130.436 81.5283 131.492 85.0858 130.436 87.5148H163.264Z" fill="#9FBEC2"/>
<path d="M123.232 79.4033H168.591" stroke="white" stroke-width="0.75" stroke-miterlimit="10" stroke-linecap="round"/>
<path d="M147.049 92.3329C143.971 90.8809 139.131 88.87 137.338 89.4888C135.545 90.1075 136.049 92.0065 136.049 92.0065C136.049 92.0065 131.576 91.4664 129.521 91.218C127.465 90.9696 127.062 94.7641 128.593 94.7822C128.593 94.7822 126.699 96.7255 128.271 98.419C128.271 98.419 126.377 100.362 127.666 101.855C128.956 103.347 130.355 105.852 139.844 105.495L143.273 111.434C143.273 111.434 150.009 107.496 153.948 101.605C153.948 101.605 151.572 94.4665 147.049 92.3329Z" fill="#FFC9A7"/>
<path d="M136.049 92.0063C136.049 92.0063 139.983 92.9096 142.269 92.7801" stroke="#373131" stroke-width="0.75" stroke-miterlimit="10" stroke-linecap="round"/>
<path d="M128.271 98.4189C128.271 98.4189 130.409 99.8344 132.776 100.046" stroke="#373131" stroke-width="0.75" stroke-miterlimit="10" stroke-linecap="round"/>
<path d="M128.594 94.7817C128.594 94.7817 130.305 95.7467 133.056 95.8278" stroke="#373131" stroke-width="0.75" stroke-miterlimit="10" stroke-linecap="round"/>
<path d="M145.854 72.5684H99.1738L115.99 77.8388H162.67L145.854 72.5684Z" fill="#2D1715"/>
<path d="M99.1735 72.5678L115.99 77.8383H160.19C160.19 77.8383 158.717 68.7724 160.19 65.6825H115.99L99.1735 60.4121C99.1735 60.4121 97.8449 69.2013 99.1735 72.5678Z" fill="white"/>
<path d="M99.1738 63.7505L114.662 69.1252H159.443" stroke="#373131" stroke-width="0.75" stroke-miterlimit="10" stroke-linecap="round"/>
<path d="M98.8096 68.2817L115.255 73.738H159.443" stroke="#373131" stroke-width="0.75" stroke-miterlimit="10" stroke-linecap="round"/>
<path d="M99.3431 60.6811L115.929 65.879L115.959 65.8884H115.99H159.879C158.707 68.9532 159.73 76.1937 159.95 77.6324H116.022L99.3302 72.4013C98.2121 69.3734 99.1472 62.091 99.3431 60.6811ZM99.1735 60.4121C99.1735 60.4121 97.8449 69.2016 99.1735 72.5678L115.99 77.8383H160.19C160.19 77.8383 158.717 68.7726 160.19 65.6825H115.99L99.1735 60.4121Z" fill="#373131"/>
<path d="M145.854 60.4121H99.1738L115.99 65.6825H162.67L145.854 60.4121Z" fill="#DE938C"/>
<path d="M115.991 65.9482C115.991 65.9482 114.238 72.1419 115.991 77.5128" stroke="#373131" stroke-width="0.75" stroke-miterlimit="10" stroke-linecap="round"/>
<path d="M99.793 59.1826L116.61 64.453H161.3L146.592 59.1826H99.793Z" fill="#373131"/>
<path d="M101.914 50.0127C101.914 50.0127 103.673 55.1025 102.593 59.1826L116.783 63.44L129.492 63.8443V50.0127H101.914Z" fill="white"/>
<path d="M102.918 57.0576L118.666 61.3611" stroke="#373131" stroke-width="0.75" stroke-miterlimit="10" stroke-linecap="round"/>
<path d="M102.729 53.5039L118.667 57.8593" stroke="#373131" stroke-width="0.75" stroke-miterlimit="10" stroke-linecap="round"/>
<path d="M101.914 50.0127C101.914 50.0127 103.673 55.1025 102.593 59.1826L116.783 63.44L129.492 63.8443V50.0127H101.914Z" stroke="#373131" stroke-width="0.75" stroke-miterlimit="10" stroke-linecap="round"/>
<path d="M116.61 64.4532C116.61 64.4532 117.755 58.8877 116.61 54.9325L99.793 49.6621H146.954L161.968 54.9325C161.968 54.9325 163.545 60.2029 161.968 64.4532H116.61Z" fill="#488094"/>
<path d="M134.692 50.6074H140.031L146.941 53.5046H140.671L134.692 50.6074Z" fill="#F2ECE9"/>
<path d="M123.74 54.9326C123.74 54.9326 125.11 59.0821 123.74 64.4533" stroke="#373131" stroke-width="0.75" stroke-miterlimit="10" stroke-linecap="round"/>
<path d="M139.624 54.9326C139.624 54.9326 140.994 59.0821 139.624 64.4533" stroke="#373131" stroke-width="0.75" stroke-miterlimit="10" stroke-linecap="round"/>
<path d="M155.508 54.9326C155.508 54.9326 156.878 59.0821 155.508 64.4533" stroke="#373131" stroke-width="0.75" stroke-miterlimit="10" stroke-linecap="round"/>
<path d="M116.609 54.9326H161.968" stroke="white" stroke-width="0.75" stroke-miterlimit="10" stroke-linecap="round"/>
<path d="M128.318 100.471C124.684 103.002 120.855 106.803 120.855 106.803C115.801 100.549 115.483 96.6497 115.483 96.6497L120.073 94.063C121.412 91.6252 120.855 88.7783 122.575 87.2756C124.004 86.0263 125.392 88.8664 124.606 91.1776C124.606 91.1776 127.094 87.9321 128.8 85.6135C129.869 84.1611 131.395 85.6755 130.696 87.7859C130.696 87.7859 132.241 85.6939 133.168 86.6156C134.095 87.5369 133.059 90.1352 133.059 90.1352C133.059 90.1352 134.152 88.4369 135.038 89.1911C135.923 89.945 137.358 94.1747 128.318 100.471Z" fill="#FFC9A7"/>
<path d="M135.406 89.7002C135.406 89.7002 136.67 91.8168 134.098 95.1658C131.703 98.2844 129.532 99.5917 129.532 99.5917" stroke="#373131" stroke-width="0.75" stroke-miterlimit="10" stroke-linecap="round"/>
<path d="M130.696 87.7861C130.696 87.7861 129.94 89.7271 127.741 92.1884" stroke="#373131" stroke-width="0.75" stroke-miterlimit="10" stroke-linecap="round"/>
<path d="M133.058 90.1353C133.058 90.1353 132.318 92.2812 130.861 94.3021" stroke="#373131" stroke-width="0.75" stroke-miterlimit="10" stroke-linecap="round"/>
<path d="M189.291 77.2816C189.291 77.2816 184.03 82.1786 178.023 77.2816C178.023 77.2816 179.453 70.3537 179.549 67.9111H188.2C188.2 67.9111 188.651 73.3777 189.291 77.2816Z" fill="#FFC9A7"/>
<path d="M178.023 77.2816C178.023 77.2816 179.453 70.3537 179.549 67.9111H185.664C186.766 81.4958 178.023 77.2816 178.023 77.2816Z" fill="#FCB486"/>
<path d="M180.984 53.1183C175.585 52.3759 173.626 55.7439 173.484 58.1903C173.342 60.6367 173.459 62.0866 173.056 64.9659C172.653 67.8452 171.195 74.5931 174.35 75.8532C177.506 77.1132 185.008 73.9172 185.945 68.4107C186.882 62.9046 189.899 54.3441 180.984 53.1183Z" fill="#FFC9A7"/>
<path d="M182.196 62.7609C182.326 62.339 181.788 61.4955 181.61 61.4128C181.433 61.33 180.15 61.2206 179.899 61.3774C179.648 61.5339 179.484 62.0728 179.484 62.0728C179.472 62.2995 182.113 63.029 182.196 62.7609Z" fill="#572C2D"/>
<path d="M173.182 61.8122C173.096 61.3648 173.714 60.6574 173.898 60.6167C174.082 60.5765 175.361 60.7679 175.592 60.9809C175.824 61.194 175.931 61.7647 175.931 61.7647C175.92 61.9914 173.236 62.0962 173.182 61.8122Z" fill="#572C2D"/>
<path d="M176.381 71.7636C177.323 71.7279 178.244 71.2687 178.866 70.5244" stroke="#373131" stroke-width="0.75" stroke-miterlimit="10" stroke-linecap="round"/>
<path d="M188.427 64.1571C188.427 64.1571 181.414 68.555 182.932 62.2769C183.932 58.1417 183.659 56.6827 180.199 58.0027C180.199 58.0027 180.324 56.9709 178.942 56.9683C176.828 56.9641 175.867 61.1243 173.372 61.3005C170.816 61.4809 168.233 61.0529 167.17 58.9969C166.068 56.8635 170.678 57.4487 170.678 57.4487C170.678 57.4487 168.446 55.7827 168.871 54.6704C169.296 53.5581 170.89 54.3085 170.89 54.3085C170.89 54.3085 169.157 52.1549 173.128 49.7172C174.059 49.1453 175.304 48.5578 176.959 47.9787C185.889 44.8541 184.633 50.2105 184.633 50.2105C184.633 50.2105 186.488 46.9742 188.72 49.2061C190.952 51.4379 192.053 60.7081 195.454 63.3862C197.365 64.8908 193.648 65.67 193.648 65.67C193.648 65.67 193.742 69.6389 192.537 70.0361C191.129 70.5009 191.085 69.2177 191.085 69.2177C191.085 69.2177 189.916 71.3007 188.993 75.249C188.992 75.2498 187.871 69.3172 188.427 64.1571Z" fill="#342222"/>
<path d="M176.211 62.2773C176.211 62.2773 176.534 65.7893 176.003 66.7638C175.868 67.0121 175.374 67.333 174.964 67.5681C174.658 67.7443 174.575 68.1678 174.787 68.4598L175.496 69.4369" stroke="#373131" stroke-width="0.75" stroke-miterlimit="10" stroke-linecap="round"/>
<path d="M180.848 64.8598C180.888 64.2313 180.632 63.7012 180.275 63.6758C179.917 63.6503 179.595 64.1391 179.554 64.7676C179.514 65.3957 179.77 65.9258 180.127 65.9513C180.485 65.9767 180.807 65.4883 180.848 64.8598Z" fill="#373131"/>
<path d="M175.161 64.1092C175.199 63.5195 174.959 63.0224 174.623 62.9985C174.288 62.9745 173.985 63.4329 173.947 64.0227C173.909 64.612 174.15 65.1095 174.485 65.1334C174.82 65.1574 175.123 64.6986 175.161 64.1092Z" fill="#373131"/>
<path d="M189.418 68.587C190.436 67.1538 191.52 65.1521 189.495 63.7242C188.43 62.9734 186.124 64.1799 185.105 65.6128C184.087 67.046 184.095 68.8604 185.123 69.6655C186.151 70.4714 188.399 70.0206 189.418 68.587Z" fill="#FFC9A7"/>
<path d="M221.977 27.2881L205.603 41.2509" stroke="white" stroke-width="0.75" stroke-miterlimit="10" stroke-linecap="round"/>
<path d="M226.298 25.9495L224.78 10.6172C224.78 10.6172 199.522 28.1937 199.67 28.3376C199.817 28.4814 207.358 41.7402 207.358 41.7402L226.298 25.9495Z" fill="#373131"/>
<path d="M225.426 26.6757L222.883 9.10352L201.609 24.3335C201.609 24.3335 207.298 38.2076 207.671 38.0865C208.044 37.9652 225.426 26.6757 225.426 26.6757Z" fill="white"/>
<path d="M225.426 26.6757L222.883 9.10352L201.609 24.3335C201.609 24.3335 207.298 38.2076 207.671 38.0865C208.044 37.9652 225.426 26.6757 225.426 26.6757Z" stroke="#373131" stroke-width="0.75" stroke-miterlimit="10" stroke-linecap="round"/>
<path d="M224.578 26.3312L216.684 7.07715L197.147 21.9404L207.724 39.094L224.578 26.3312Z" fill="white"/>
<path d="M224.578 26.3312L216.684 7.07715L197.147 21.9404L207.724 39.094L224.578 26.3312Z" stroke="#373131" stroke-width="0.75" stroke-miterlimit="10" stroke-linecap="round"/>
<path d="M222.684 24.8947L214.655 7L197.147 21.9407L208.301 38.9963L222.684 24.8947Z" fill="white"/>
<path d="M222.684 24.8947L214.655 7L197.147 21.9407L208.301 38.9963L222.684 24.8947Z" stroke="#373131" stroke-width="0.75" stroke-miterlimit="10" stroke-linecap="round"/>
<path d="M226.298 25.9493C226.298 25.9493 224.282 26.9741 222.684 24.8951L212.79 7.22852L194 22.223L203.826 40.0257C203.826 40.0257 204.912 41.8563 207.358 41.74L226.298 25.9493Z" fill="#488094"/>
<path d="M222.684 24.8945L203.984 40.8839" stroke="white" stroke-width="0.75" stroke-miterlimit="10" stroke-linecap="round"/>
<path d="M15.7311 46.6079L17.955 21.1044" stroke="white" stroke-width="0.75" stroke-miterlimit="10" stroke-linecap="round"/>
<path d="M13.1867 51.35L27.2724 63.0783C27.2724 63.0783 34.0091 27.0966 33.7641 27.0977C33.5192 27.0988 16.0594 22.1555 16.0594 22.1555L13.1867 51.35Z" fill="#373131"/>
<path d="M13.3185 50.0057L30.1423 62.7772L35.4607 32.1104C35.4607 32.1104 19.0581 25.0986 18.8427 25.5128C18.6276 25.9272 13.3185 50.0057 13.3185 50.0057Z" fill="white"/>
<path d="M13.3185 50.0057L30.1423 62.7772L35.4607 32.1104C35.4607 32.1104 19.0581 25.0986 18.8427 25.5128C18.6276 25.9272 13.3185 50.0057 13.3185 50.0057Z" stroke="#373131" stroke-width="0.75" stroke-miterlimit="10" stroke-linecap="round"/>
<path d="M14.3249 49.5891L37.0878 59.3199L41.2404 30.4134L17.957 24.7022L14.3249 49.5891Z" fill="white"/>
<path d="M14.3249 49.5891L37.0878 59.3199L41.2404 30.4134L17.957 24.7022L14.3249 49.5891Z" stroke="#373131" stroke-width="0.75" stroke-miterlimit="10" stroke-linecap="round"/>
<path d="M17.1292 49.2259L38.8719 57.6918L41.2403 30.4132L17.5497 25.2666L17.1292 49.2259Z" fill="white"/>
<path d="M17.1292 49.2259L38.8719 57.6918L41.2403 30.4132L17.5497 25.2666L17.1292 49.2259Z" stroke="#373131" stroke-width="0.75" stroke-miterlimit="10" stroke-linecap="round"/>
<path d="M13.1862 51.3493C13.1862 51.3493 14.0395 48.7979 17.1293 49.2263L40.2624 55.9421L43.6729 27.5473L20.4839 20.6593C20.4839 20.6593 18.0348 20.0147 16.0587 22.1551L13.1862 51.3493Z" fill="#488094"/>
<path d="M17.1294 49.2256L19.6325 20.0634" stroke="white" stroke-width="0.75" stroke-miterlimit="10" stroke-linecap="round"/>
<path d="M82.0693 13.6234L83.0818 10.3554C83.0818 10.3554 93.38 15.7381 95.4577 17.9659C95.4577 17.9659 107.314 10.7935 109.059 10L109.338 10.954L110.935 10.2981L118.42 27.5027L103.883 35.8076L93.0106 31.0817L82.0693 13.6234Z" fill="white"/>
<path d="M109.337 10.9541C109.337 10.9541 99.8036 16.345 95.6574 19.2249C95.6574 19.2249 86.1828 12.978 82.5918 11.9345" stroke="#373131" stroke-width="0.75" stroke-miterlimit="10" stroke-linecap="round"/>
<path d="M111.363 11.2842C111.363 11.2842 103.402 15.5158 99.6016 18.4176" stroke="#373131" stroke-width="0.75" stroke-miterlimit="10" stroke-linecap="round"/>
<path d="M82.2871 12.917C82.2871 12.917 90.859 17.3053 93.757 20.1289" stroke="#373131" stroke-width="0.75" stroke-miterlimit="10" stroke-linecap="round"/>
<path d="M82.0693 13.6234L83.0818 10.3554C83.0818 10.3554 93.38 15.7381 95.4577 17.9659C95.4577 17.9659 107.314 10.7935 109.059 10L109.338 10.954L110.935 10.2981L118.42 27.5027L103.883 35.8076L93.0106 31.0817L82.0693 13.6234Z" stroke="#373131" stroke-width="0.75" stroke-miterlimit="10" stroke-linecap="round"/>
<path d="M80 12.6935L93.9619 18.9682C93.9619 18.9682 95.1084 19.6683 96.8534 18.8748L112.381 12.1816L121.229 31.0586L106.408 37.3599C106.408 37.3599 104.443 38.0446 102.899 37.2726L90.798 32.1408L80 12.6935Z" fill="#DE938C"/>
<path d="M95.3984 21.9106C95.3984 21.9106 97.0907 22.0761 98.025 21.1416" stroke="#373131" stroke-width="0.75" stroke-miterlimit="10" stroke-linecap="round"/>
<path d="M97.8486 26.9296C97.8486 26.9296 99.5344 27.1373 100.6 26.124" stroke="#373131" stroke-width="0.75" stroke-miterlimit="10" stroke-linecap="round"/>
<path d="M100.062 31.4617C100.062 31.4617 101.903 31.3472 102.779 30.3389" stroke="#373131" stroke-width="0.75" stroke-miterlimit="10" stroke-linecap="round"/>
<path d="M101.968 35.366C101.968 35.366 103.534 35.6946 104.929 34.499" stroke="#373131" stroke-width="0.75" stroke-miterlimit="10" stroke-linecap="round"/>
<path d="M96.8535 18.875L106.408 37.36" stroke="white" stroke-width="0.75" stroke-miterlimit="10" stroke-linecap="round"/>
<path d="M93.9619 18.9678L102.899 37.2722" stroke="white" stroke-width="0.75" stroke-miterlimit="10" stroke-linecap="round"/>
</svg>
