<svg width="30" height="26" viewBox="0 0 30 26" fill="none" xmlns="http://www.w3.org/2000/svg">
<path d="M8.09731 0.5C6.49584 0.499911 4.93031 0.955038 3.5987 1.80782C2.2671 2.66061 1.22923 3.87274 0.616365 5.29094C0.00349587 6.70913 -0.156849 8.26968 0.155608 9.77523C0.468065 11.2808 1.23929 12.6637 2.37175 13.7491L14.3365 25.2175C14.4296 25.3071 14.5403 25.3781 14.6622 25.4266C14.784 25.475 14.9147 25.5 15.0466 25.5C15.1786 25.5 15.3092 25.475 15.4311 25.4266C15.5529 25.3781 15.6636 25.3071 15.7568 25.2175L27.7215 13.7472C29.1989 12.2839 30.0171 10.3226 29.9997 8.28637C29.9823 6.25012 29.1307 4.30199 27.6285 2.86209C26.1263 1.42219 24.0939 0.605881 21.9695 0.589201C19.8451 0.572521 17.799 1.3568 16.2724 2.77292L15.0466 3.94592L13.8229 2.77292C13.0707 2.05203 12.1778 1.48025 11.195 1.09026C10.2123 0.700261 9.16096 0.499689 8.09731 0.5Z" fill="#DE938C"/>
</svg>
