<svg width="30" height="26" viewBox="0 0 30 26" fill="none" xmlns="http://www.w3.org/2000/svg">
<path d="M15 24.5368L14.292 25.2175C14.3849 25.3071 14.4952 25.3781 14.6167 25.4266C14.7382 25.475 14.8685 25.5 15 25.5C15.1315 25.5 15.2618 25.475 15.3833 25.4266C15.5048 25.3781 15.6151 25.3071 15.708 25.2175L15 24.5368ZM15 5.30736L14.292 5.98808C14.3849 6.07762 14.4952 6.14866 14.6167 6.19713C14.7382 6.2456 14.8685 6.27055 15 6.27055C15.1315 6.27055 15.2618 6.2456 15.3833 6.19713C15.5048 6.14866 15.6151 6.07762 15.708 5.98808L15 5.30736ZM15.708 23.8561L3.778 12.3876L2.364 13.7472L14.292 25.2175L15.708 23.8561ZM26.222 12.3876L14.292 23.8561L15.708 25.2175L27.636 13.7472L26.222 12.3876ZM12.364 4.13244L14.292 5.98808L15.708 4.62664L13.778 2.77292L12.364 4.13244ZM15.708 5.98808L17.636 4.13244L16.222 2.77292L14.292 4.62664L15.708 5.98808ZM21.928 0.5C19.788 0.5 17.736 1.31725 16.222 2.77292L17.636 4.13244C18.7745 3.0383 20.3183 2.42344 21.928 2.42294V0.5ZM28 8.261C28 9.80898 27.36 11.2935 26.22 12.3876L27.636 13.7472C29.1493 12.2921 29.9996 10.3187 30 8.261H28ZM30 8.261C30 6.20266 29.1496 4.22862 27.6358 2.77315C26.122 1.31767 24.0688 0.5 21.928 0.5V2.42294C23.5384 2.42294 25.0828 3.03802 26.2216 4.13287C27.3603 5.22772 28 6.71266 28 8.261H30ZM8.072 2.42294C9.682 2.42294 11.226 3.03829 12.364 4.13437L13.778 2.77292C12.2646 1.31795 10.2122 0.500391 8.072 0.5V2.42294ZM2 8.261C2 6.71266 2.63973 5.22772 3.77845 4.13287C4.91717 3.03802 6.46161 2.42294 8.072 2.42294V0.5C5.93117 0.5 3.87803 1.31767 2.36423 2.77315C0.85044 4.22862 0 6.20266 0 8.261H2ZM3.778 12.3876C3.21398 11.8459 2.76848 11.2026 2.46307 10.4946C2.15765 9.78651 2.0003 9.02754 2 8.261H0C0 10.3186 0.85 12.2915 2.364 13.7472L3.778 12.3876Z" fill="#DE938C"/>
</svg>
